HIERARCHY
ROOT Hips
{
  OFFSET 56.9949 92.8172 9.10741
  CHANNELS 6 Xposition Yposition Zposition Zrotation Xrotation Yrotation
  JOINT spine
  {
    OFFSET 0 7.80059 0.448573
    CHANNELS 3 Zrotation Xrotation Yrotation
    JOINT spine1
    {
      OFFSET 0 10.1364 0
      CHANNELS 3 Zrotation Xrotation Yrotation
      JOINT spine2
      {
        OFFSET 0 9.71251 0
        CHANNELS 3 Zrotation Xrotation Yrotation
        JOINT Neck
        {
          OFFSET 0 24.9361 1.18887
          CHANNELS 3 Zrotation Xrotation Yrotation
          JOINT Head
          {
            OFFSET 0 7.53384 0
            CHANNELS 3 Zrotation Xrotation Yrotation
            End Site
            {
              OFFSET 0 18.2361 -6.01402
            }
          }
        }
        JOINT RightShoulder
        {
          OFFSET -4.08965 10.4888 -0.569457
          CHANNELS 3 Zrotation Xrotation Yrotation
          JOINT RightArm
          {
            OFFSET 0 13.757 0
            CHANNELS 3 Zrotation Xrotation Yrotation
            JOINT RightArmRoll
            {
              OFFSET 0 6.94478 0
              CHANNELS 3 Zrotation Xrotation Yrotation
              JOINT RightForeArm
              {
                OFFSET 0 20.2277 0
                CHANNELS 3 Zrotation Xrotation Yrotation
                JOINT RightForeArmRoll
                {
                  OFFSET 0 7.79312 0
                  CHANNELS 3 Zrotation Xrotation Yrotation
                  JOINT RightHand
                  {
                    OFFSET 0 15.6391 0
                    CHANNELS 3 Zrotation Xrotation Yrotation
                    End Site
                    {
                      OFFSET 0 0 0
                    }
                  }
                }
              }
            }
          }
        }
        JOINT LeftShoulder
        {
          OFFSET 4.08965 10.4888 -0.569457
          CHANNELS 3 Zrotation Xrotation Yrotation
          JOINT LeftArm
          {
            OFFSET 0 13.757 0
            CHANNELS 3 Zrotation Xrotation Yrotation
            JOINT LeftArmRoll
            {
              OFFSET 0 6.94478 0
              CHANNELS 3 Zrotation Xrotation Yrotation
              JOINT LeftForeArm
              {
                OFFSET 0 20.2277 0
                CHANNELS 3 Zrotation Xrotation Yrotation
                JOINT LeftForeArmRoll
                {
                  OFFSET 0 7.79312 0
                  CHANNELS 3 Zrotation Xrotation Yrotation
                  JOINT LeftHand
                  {
                    OFFSET 0 15.6391 0
                    CHANNELS 3 Zrotation Xrotation Yrotation
                    End Site
                    {
                      OFFSET 0 0 0
                    }
                  }
                }
              }
            }
          }
        }
      }
    }
  }
  JOINT RightUpLeg
  {
    OFFSET -6.91416 -1.26788 -1.06358
    CHANNELS 3 Zrotation Xrotation Yrotation
    JOINT RightUpLegRoll
    {
      OFFSET 0 18.3378 0
      CHANNELS 3 Zrotation Xrotation Yrotation
      JOINT RightLeg
      {
        OFFSET 0 -22.7085 0
        CHANNELS 3 Zrotation Xrotation Yrotation
        JOINT RightLegRoll
        {
          OFFSET 0 22.7828 0
          CHANNELS 3 Zrotation Xrotation Yrotation
          JOINT RightFoot
          {
            OFFSET 0 18.9629 0
            CHANNELS 3 Zrotation Xrotation Yrotation
            JOINT RightToeBase
            {
              OFFSET 0 15.852 0
              CHANNELS 3 Zrotation Xrotation Yrotation
              End Site
              {
                OFFSET 0.00671906 7.67701 -0.884893
              }
            }
          }
        }
      }
    }
  }
  JOINT LeftUpLeg
  {
    OFFSET 6.91416 -1.26788 -1.06358
    CHANNELS 3 Zrotation Xrotation Yrotation
    JOINT LeftUpLegRoll
    {
      OFFSET 0 18.3379 0
      CHANNELS 3 Zrotation Xrotation Yrotation
      JOINT LeftLeg
      {
        OFFSET 0 22.7084 0
        CHANNELS 3 Zrotation Xrotation Yrotation
        JOINT LeftLegRoll
        {
          OFFSET 0 22.9934 0
          CHANNELS 3 Zrotation Xrotation Yrotation
          JOINT LeftFoot
          {
            OFFSET 0 18.7522 0
            CHANNELS 3 Zrotation Xrotation Yrotation
            JOINT LeftToeBase
            {
              OFFSET 0 15.852 0
              CHANNELS 3 Zrotation Xrotation Yrotation
              End Site
              {
                OFFSET -0.030112 7.67701 -0.884893
              }
            }
          }
        }
      }
    }
  }
}
MOTION
Frames: 9
Frame Time: 0.00208333
54.4146 90.9926 13.253 -5.16952 -7.78032 -5.31114 0.79606 1.60653 -0.545604 1.622 7.20619 -1.21934 1.64177 8.85072 -1.24915 7.69143 10.7117 0.472926 -4.18001 -12.3757 1.50635 76.9011 -5.06162 -4.20066 84.1738 -18.0187 -44.4089 -3.88112e-007 -5.23716e-007 7.9653e-006 -149.844 62.0323 120.598 4.72617e-006 4.75519e-006 -3 8.02961 -4.95149 0.697683 -49.4736 -3.36734 1.25324 -106.652 26.936 16.3301 5.53581e-006 1.09117e-006 -4.03679e-006 174.413 68.5194 -163.815 2.02415e-005 6.15166e-006 3.00002 -8.0295 -4.95152 -0.697688 -175.941 15.3171 -3.87911 180 7.0159e-015 179.128 178.318 19.2609 179.489 -1.49267e-006 -2.57806e-006 0.196776 -14.7463 63.4381 16.4859 8.13649 25.2327 -3.48774 -176.718 -4.90914 0.504591 4.54188e-006 -4.6773e-006 -1.64119 -8.69622 -27.0792 -2.08186 -5.19365e-006 -6.37156e-006 -0.767658 86.0683 82.0318 -80.0576 -8.14047 25.2917 3.48162 
54.4381 91.0046 13.2466 -5.19857 -7.72577 -5.50623 0.786213 1.59738 -0.554226 1.60253 7.18784 -1.23492 1.62225 8.83238 -1.26439 8.43154 10.7999 0.448368 -4.86296 -12.3939 1.52829 77.1857 -5.07146 -4.21963 83.6314 -18.342 -44.1132 -3.88112e-007 -5.23716e-007 7.9653e-006 -150.192 61.7325 120.72 4.72617e-006 4.75519e-006 -3 8.02961 -4.95149 0.697683 -49.016 -3.3192 1.17321 -106.609 27.622 16.1321 5.53581e-006 1.09117e-006 -4.03679e-006 174.507 68.8023 -164.147 2.02415e-005 6.15166e-006 3.00002 -8.0295 -4.95152 -0.697688 -175.907 15.3335 -3.92471 180 7.0159e-015 179.132 178.324 19.173 179.492 -1.49267e-006 -2.57806e-006 0.195453 -14.7565 63.4503 16.494 8.13649 25.2327 -3.48774 -176.76 -4.95271 0.500196 4.54188e-006 -4.6773e-006 -1.6488 -8.72287 -26.9435 -2.07954 -5.19365e-006 -6.37156e-006 -0.766043 85.7768 82.0095 -79.6854 -8.14045 25.2913 3.48158 
54.4592 91.0082 13.2284 -5.22697 -7.67226 -5.70315 0.776783 1.58905 -0.562844 1.58391 7.17118 -1.25056 1.60359 8.81573 -1.27971 9.15412 10.8775 0.425803 -5.52961 -12.4054 1.55121 77.4562 -5.08133 -4.23774 83.104 -18.656 -43.8155 -3.88112e-007 -5.23716e-007 7.9653e-006 -150.534 61.4407 120.844 4.72617e-006 4.75519e-006 -3 8.02961 -4.95149 0.697683 -48.5594 -3.27528 1.09584 -106.57 28.307 15.9202 5.53581e-006 1.09117e-006 -4.03679e-006 174.599 69.1026 -164.482 2.02415e-005 6.15166e-006 3.00002 -8.0295 -4.95152 -0.697688 -175.874 15.3493 -3.97002 180 7.01591e-015 179.136 178.33 19.0856 179.494 -1.49267e-006 -2.57806e-006 0.194148 -14.7672 63.4627 16.5022 8.13649 25.2327 -3.48774 -176.804 -4.99794 0.497385 4.54188e-006 -4.6773e-006 -1.65655 -8.74844 -26.8065 -2.0768 -5.19365e-006 -6.37156e-006 -0.764431 85.4814 81.9869 -79.3091 -8.14042 25.291 3.48154 
54.4833 91.021 13.2293 -5.25448 -7.61986 -5.90199 0.767978 1.58153 -0.571391 1.56654 7.15617 -1.26617 1.58619 8.80072 -1.29503 9.85476 10.9456 0.406287 -6.17685 -12.4116 1.57558 77.7102 -5.09179 -4.25518 82.59 -18.9618 -43.5219 -3.88112e-007 -5.23716e-007 7.9653e-006 -150.869 61.1567 120.969 4.72617e-006 4.75519e-006 -3 8.02961 -4.95149 0.697683 -48.1057 -3.23495 1.02104 -106.536 28.9902 15.6938 5.53581e-006 1.09117e-006 -4.03679e-006 174.685 69.4213 -164.818 2.02415e-005 6.15166e-006 3.00002 -8.0295 -4.95152 -0.697688 -175.841 15.3647 -4.01464 180 7.01592e-015 179.14 178.336 18.9991 179.497 -1.49267e-006 -2.57806e-006 0.192877 -14.7785 63.4754 16.5104 8.13649 25.2327 -3.48774 -176.85 -5.04483 0.496755 4.54188e-006 -4.6773e-006 -1.66446 -8.77257 -26.6682 -2.07354 -5.19365e-006 -6.37156e-006 -0.762837 85.1817 81.9638 -78.9283 -8.1404 25.2906 3.4815 
54.5063 91.0305 13.2118 -5.28082 -7.56867 -6.10279 0.760008 1.5748 -0.579802 1.55084 7.14278 -1.28166 1.57049 8.78734 -1.31024 10.529 11.0055 0.390876 -6.80153 -12.4139 1.60188 77.9453 -5.10344 -4.27211 82.0877 -19.2602 -43.2381 -3.88112e-007 -5.23716e-007 7.9653e-006 -151.194 60.8799 121.089 4.72617e-006 4.75519e-006 -3 8.02961 -4.95149 0.697683 -47.6571 -3.1976 0.948759 -106.509 29.6709 15.4525 5.53581e-006 1.09117e-006 -4.03679e-006 174.764 69.7592 -165.152 2.02415e-005 6.15166e-006 3.00002 -8.0295 -4.95152 -0.697688 -175.81 15.3797 -4.05821 180 7.01593e-015 179.144 178.342 18.9138 179.5 -1.49267e-006 -2.57806e-006 0.191656 -14.7904 63.4886 16.5187 8.13649 25.2327 -3.48774 -176.9 -5.09338 0.498901 4.54188e-006 -4.6773e-006 -1.67258 -8.79488 -26.5287 -2.06965 -5.19365e-006 -6.37156e-006 -0.761274 84.8775 81.9402 -78.5428 -8.14037 25.2902 3.48145 
54.5333 91.0425 13.1956 -5.30572 -7.51876 -6.30565 0.753079 1.56883 -0.58801 1.53722 7.13098 -1.29691 1.55688 8.77554 -1.32527 11.1725 11.0582 0.380625 -7.40053 -12.4138 1.63057 78.1591 -5.11684 -4.28873 81.5954 -19.5523 -42.9704 -3.88112e-007 -5.23716e-007 7.9653e-006 -151.507 60.6101 121.202 4.72617e-006 4.75519e-006 -3 8.02961 -4.95149 0.697683 -47.2155 -3.16262 0.878918 -106.487 30.3484 15.1956 5.53581e-006 1.09117e-006 -4.03679e-006 174.834 70.1173 -165.484 2.02415e-005 6.15166e-006 3.00002 -8.0295 -4.95152 -0.697688 -175.78 15.3947 -4.10033 180 7.01593e-015 179.148 178.348 18.8301 179.502 -1.49267e-006 -2.57806e-006 0.1905 -14.803 63.5023 16.5271 8.13649 25.2327 -3.48774 -176.953 -5.14361 0.504421 4.54188e-006 -4.6773e-006 -1.68094 -8.81501 -26.388 -2.06503 -5.19365e-006 -6.37156e-006 -0.759758 84.5683 81.9162 -78.1523 -8.14034 25.2897 3.4814 
54.5564 91.0472 13.1847 -5.32892 -7.47023 -6.51062 0.747401 1.56361 -0.595949 1.52609 7.12072 -1.31184 1.5458 8.76528 -1.34001 11.7808 11.105 0.376592 -7.97074 -12.4128 1.66215 78.3493 -5.13258 -4.30521 81.1111 -19.8391 -42.7249 -3.88112e-007 -5.23716e-007 7.9653e-006 -151.806 60.3469 121.305 4.72617e-006 4.75519e-006 -3 8.02961 -4.95149 0.697683 -46.7829 -3.12938 0.811452 -106.473 31.0219 14.9225 5.53581e-006 1.09117e-006 -4.03679e-006 174.892 70.4964 -165.808 2.02415e-005 6.15166e-006 3.00002 -8.0295 -4.95152 -0.697688 -175.752 15.4098 -4.14062 180 7.01594e-015 179.152 178.354 18.7485 179.504 -1.49267e-006 -2.57806e-006 0.189425 -14.8165 63.5166 16.5356 8.13649 25.2327 -3.48774 -177.01 -5.19551 0.513911 4.54188e-006 -4.6773e-006 -1.68957 -8.83259 -26.2461 -2.05958 -5.19365e-006 -6.37156e-006 -0.758303 84.2537 81.8917 -77.7562 -8.14031 25.2893 3.48135 
54.5804 91.0568 13.1422 -5.35017 -7.42316 -6.71778 0.743182 1.55912 -0.603554 1.51788 7.11199 -1.32634 1.53765 8.75655 -1.35438 12.3495 11.147 0.379833 -8.509 -12.4122 1.69709 78.5135 -5.15125 -4.32174 80.6329 -20.1216 -42.5077 -3.88112e-007 -5.23716e-007 7.9653e-006 -152.09 60.0898 121.394 4.72617e-006 4.75519e-006 -3 8.02961 -4.95149 0.697683 -46.3614 -3.09728 0.746293 -106.466 31.6907 14.6327 5.53581e-006 1.09117e-006 -4.03679e-006 174.936 70.8975 -166.124 2.02415e-005 6.15166e-006 3.00002 -8.0295 -4.95152 -0.697688 -175.727 15.4252 -4.17871 180 7.01595e-015 179.155 178.36 18.6693 179.507 -1.49267e-006 -2.57806e-006 0.188446 -14.831 63.5318 16.5442 8.13649 25.2327 -3.48774 -177.073 -5.24909 0.527969 4.54188e-006 -4.6773e-006 -1.6985 -8.84724 -26.103 -2.0532 -5.19365e-006 -6.37156e-006 -0.756925 83.9335 81.8667 -77.3543 -8.14028 25.2889 3.4813 
54.6139 91.0712 13.1352 -5.37003 -7.3784 -6.92807 0.740137 1.55579 -0.610918 1.51201 7.10571 -1.34056 1.53189 8.75027 -1.36852 12.8833 11.1772 0.388579 -9.01691 -12.4058 1.73475 78.6508 -5.17186 -4.3377 80.1658 -20.3964 -42.3094 -3.88112e-007 -5.23716e-007 7.9653e-006 -152.364 59.8391 121.477 4.72617e-006 4.75519e-006 -3 8.02961 -4.95149 0.697683 -45.9477 -3.06713 0.68279 -106.463 32.3502 14.3167 5.53581e-006 1.09117e-006 -4.03679e-006 174.991 71.3126 -166.462 2.02415e-005 6.15166e-006 3.00002 -8.0295 -4.95152 -0.697688 -175.702 15.4391 -4.21545 180 7.01595e-015 179.159 178.365 18.5911 179.509 -1.49267e-006 -2.57806e-006 0.187525 -14.8462 63.5475 16.5529 8.13649 25.2327 -3.48774 -177.141 -5.30655 0.546686 4.54188e-006 -4.6773e-006 -1.70784 -8.85865 -25.9573 -2.04572 -5.19365e-006 -6.37156e-006 -0.755615 83.6053 81.841 -76.9445 -8.14025 25.2884 3.48124 
